<?xml version="1.0" encoding="UTF-8"?>
<svg xmlns="http://www.w3.org/2000/svg" xmlns:xlink="http://www.w3.org/1999/xlink" width="91px" height="64px" viewBox="0 0 90 64" version="1.1">
<g id="surface1">
<path style=" stroke:none;fill-rule:nonzero;fill:rgb(0%,0%,0%);fill-opacity:1;" d="M 43.15625 1.3125 C 42.933594 1.425781 42.652344 1.792969 42.457031 2.222656 C 41.875 3.496094 41.464844 6.101562 41.53125 8.105469 L 41.554688 8.816406 L 41.414062 9.15625 C 40.996094 10.152344 40.375 10.792969 39.722656 10.898438 L 39.542969 10.929688 L 39.671875 10.75 C 39.832031 10.523438 39.894531 10.300781 39.894531 9.96875 C 39.890625 9.667969 39.796875 9.40625 39.511719 8.894531 C 39.398438 8.695312 39.238281 8.382812 39.144531 8.199219 C 38.980469 7.875 38.976562 7.847656 38.996094 7.539062 C 39.019531 7.183594 38.953125 6.984375 38.777344 6.902344 C 38.429688 6.75 38.195312 7.195312 38.351562 7.71875 C 38.394531 7.875 38.394531 7.953125 38.351562 8.199219 C 38.316406 8.363281 38.246094 8.59375 38.1875 8.722656 C 38.132812 8.847656 38.046875 9.097656 38.007812 9.273438 C 37.695312 10.515625 37.121094 11.15625 36.59375 10.832031 C 36.277344 10.644531 36.105469 10.183594 35.988281 9.25 C 35.898438 8.53125 35.84375 8.378906 35.65625 8.355469 C 35.585938 8.34375 35.515625 8.378906 35.449219 8.449219 L 35.351562 8.554688 L 35.429688 9.246094 C 35.46875 9.628906 35.496094 10.070312 35.484375 10.234375 C 35.453125 10.609375 35.304688 10.941406 35.0625 11.148438 C 34.917969 11.273438 34.859375 11.296875 34.683594 11.296875 C 34.257812 11.296875 34.050781 10.886719 34.050781 10.03125 C 34.054688 9.664062 34.078125 9.46875 34.144531 9.21875 C 34.261719 8.796875 34.261719 8.699219 34.136719 8.617188 C 33.800781 8.394531 33.566406 8.851562 33.488281 9.882812 C 33.449219 10.386719 33.390625 10.566406 33.210938 10.78125 C 33.066406 10.949219 32.609375 11.199219 32.585938 11.117188 C 32.460938 10.707031 32.40625 10.558594 32.28125 10.316406 C 32.003906 9.789062 31.59375 9.488281 31.214844 9.539062 C 30.878906 9.585938 30.679688 9.84375 30.679688 10.230469 C 30.679688 10.855469 31.230469 11.507812 31.90625 11.675781 C 32.011719 11.703125 32.101562 11.742188 32.101562 11.765625 C 32.101562 11.78125 32.0625 11.902344 32.015625 12.03125 C 31.742188 12.769531 30.734375 12.917969 30.328125 12.269531 C 29.996094 11.742188 30.023438 11.136719 30.402344 10.636719 C 30.570312 10.417969 30.578125 10.277344 30.441406 10.167969 C 30.328125 10.082031 30.226562 10.109375 30.046875 10.273438 C 29.695312 10.59375 29.546875 11.0625 29.546875 11.878906 C 29.546875 13.273438 29.1875 13.992188 28.574219 13.820312 C 28.230469 13.726562 27.964844 13.339844 27.433594 12.160156 C 27.257812 11.765625 27.085938 11.402344 27.054688 11.347656 C 26.964844 11.210938 26.726562 11.214844 26.636719 11.359375 C 26.550781 11.488281 26.5625 11.550781 26.851562 12.21875 C 27.050781 12.675781 27.085938 12.808594 27.125 13.15625 C 27.222656 14.101562 26.988281 14.9375 26.492188 15.402344 C 26.234375 15.644531 26.0625 15.722656 25.773438 15.722656 C 25.359375 15.722656 24.960938 15.464844 24.652344 14.996094 C 24.234375 14.359375 24.214844 13.609375 24.621094 13.363281 C 24.921875 13.175781 25.238281 13.335938 25.238281 13.675781 C 25.238281 13.800781 25.40625 13.992188 25.507812 13.992188 C 25.546875 13.992188 25.625 13.941406 25.683594 13.882812 C 25.78125 13.789062 25.789062 13.753906 25.769531 13.570312 C 25.722656 13.179688 25.5 12.894531 25.15625 12.777344 C 24.585938 12.582031 24 12.953125 23.832031 13.617188 C 23.734375 13.992188 23.773438 14.296875 24 14.972656 C 24.375 16.101562 24.359375 16.941406 23.953125 17.476562 L 23.792969 17.683594 L 23.78125 17.554688 C 23.753906 17.28125 23.636719 16.980469 23.484375 16.789062 C 23.292969 16.539062 22.972656 16.363281 22.246094 16.089844 C 21.402344 15.773438 21.375 15.753906 21.222656 15.515625 C 20.996094 15.160156 20.65625 15.027344 20.464844 15.214844 C 20.277344 15.40625 20.40625 15.738281 20.789062 16.019531 C 20.976562 16.164062 21.042969 16.253906 21.175781 16.53125 C 21.265625 16.714844 21.332031 16.890625 21.320312 16.921875 C 21.308594 16.953125 21.390625 17.171875 21.507812 17.410156 C 21.875 18.183594 22.015625 18.855469 21.871094 19.195312 C 21.804688 19.355469 21.664062 19.472656 21.535156 19.472656 C 21.363281 19.472656 21.027344 19.257812 20.570312 18.863281 C 20.015625 18.378906 19.785156 18.25 19.46875 18.25 C 19.261719 18.25 19.226562 18.261719 19.085938 18.410156 C 18.898438 18.601562 18.8125 18.859375 18.851562 19.15625 C 18.890625 19.523438 19.285156 20.597656 19.617188 21.257812 C 19.671875 21.371094 19.710938 21.46875 19.703125 21.476562 C 19.695312 21.484375 19.429688 21.25 19.105469 20.960938 C 18.402344 20.332031 18.1875 20.167969 17.953125 20.085938 C 17.316406 19.855469 17.015625 20.316406 17.308594 21.066406 C 17.472656 21.480469 17.742188 21.957031 17.855469 22.027344 C 18.011719 22.136719 18.164062 22.492188 18.164062 22.761719 C 18.164062 22.996094 18.066406 23.371094 17.992188 23.414062 C 17.972656 23.425781 17.882812 23.390625 17.800781 23.328125 C 17.332031 23.015625 16.546875 22.847656 16.171875 22.992188 C 15.808594 23.132812 15.628906 23.566406 15.800781 23.894531 C 15.890625 24.074219 16.179688 24.308594 16.429688 24.402344 C 16.890625 24.578125 17.324219 24.550781 17.785156 24.328125 C 18 24.21875 18.003906 24.21875 18.066406 24.300781 C 18.097656 24.34375 18.15625 24.484375 18.195312 24.609375 C 18.304688 25.007812 18.167969 25.398438 17.816406 25.6875 C 17.683594 25.796875 17.617188 25.816406 17.375 25.828125 C 17.03125 25.851562 16.804688 25.761719 16.484375 25.496094 C 16.226562 25.277344 16.078125 24.992188 16.035156 24.628906 C 16.007812 24.414062 15.980469 24.328125 15.902344 24.269531 C 15.632812 24.046875 15.425781 24.363281 15.527344 24.855469 C 15.605469 25.238281 15.796875 25.566406 16.15625 25.941406 C 16.734375 26.550781 17.03125 27.09375 17.125 27.714844 C 17.167969 27.976562 17.164062 28.066406 17.105469 28.308594 C 17.007812 28.695312 16.871094 28.886719 16.582031 29.027344 C 15.859375 29.386719 14.601562 28.871094 14.398438 28.128906 C 14.253906 27.625 14.710938 27.246094 15.050781 27.585938 C 15.21875 27.753906 15.304688 27.789062 15.433594 27.726562 C 15.597656 27.644531 15.617188 27.414062 15.460938 27.234375 C 15.09375 26.789062 14.351562 26.816406 14.015625 27.285156 C 13.347656 28.214844 14.394531 29.558594 15.894531 29.699219 C 16.617188 29.765625 17.238281 29.429688 17.511719 28.824219 C 17.792969 28.207031 17.757812 27.503906 17.410156 26.773438 C 17.320312 26.578125 17.242188 26.414062 17.242188 26.40625 C 17.242188 26.402344 17.351562 26.386719 17.484375 26.378906 C 18.347656 26.296875 18.9375 25.339844 18.675781 24.464844 C 18.625 24.304688 18.539062 24.105469 18.480469 24.019531 L 18.382812 23.875 L 18.53125 23.570312 C 18.855469 22.910156 18.730469 22.136719 18.199219 21.546875 C 18.023438 21.351562 17.808594 20.941406 17.761719 20.699219 C 17.738281 20.570312 17.742188 20.566406 17.8125 20.601562 C 18.007812 20.707031 18.441406 21.066406 19.023438 21.601562 C 19.371094 21.917969 19.707031 22.210938 19.777344 22.257812 C 20.015625 22.410156 20.273438 22.339844 20.40625 22.078125 C 20.5 21.898438 20.457031 21.738281 20.1875 21.183594 C 19.585938 19.984375 19.273438 19.039062 19.417969 18.863281 C 19.542969 18.714844 19.648438 18.769531 20.296875 19.34375 C 21 19.957031 21.492188 20.140625 21.910156 19.9375 C 22.269531 19.765625 22.476562 19.367188 22.476562 18.855469 L 22.476562 18.609375 L 22.886719 18.609375 C 23.265625 18.609375 23.3125 18.601562 23.578125 18.464844 C 23.921875 18.296875 24.324219 17.914062 24.496094 17.589844 C 24.671875 17.261719 24.777344 16.785156 24.777344 16.328125 L 24.777344 15.9375 L 24.976562 16.058594 C 25.621094 16.464844 26.347656 16.34375 26.941406 15.738281 C 27.347656 15.324219 27.664062 14.554688 27.664062 13.988281 L 27.664062 13.8125 L 27.84375 13.976562 C 28.097656 14.210938 28.289062 14.324219 28.542969 14.378906 C 28.984375 14.46875 29.425781 14.277344 29.679688 13.875 C 29.808594 13.664062 30.007812 13.089844 30.007812 12.914062 C 30.007812 12.859375 30.015625 12.8125 30.03125 12.8125 C 30.042969 12.8125 30.132812 12.882812 30.242188 12.960938 C 31.09375 13.613281 32.367188 13.023438 32.582031 11.878906 C 32.609375 11.738281 32.632812 11.71875 32.824219 11.65625 C 33.09375 11.566406 33.28125 11.453125 33.507812 11.246094 C 33.679688 11.085938 33.683594 11.085938 33.707031 11.183594 C 33.742188 11.328125 34.054688 11.667969 34.253906 11.769531 C 34.492188 11.894531 34.902344 11.894531 35.140625 11.769531 C 35.351562 11.660156 35.664062 11.316406 35.789062 11.058594 L 35.878906 10.867188 L 36.066406 11.085938 C 36.3125 11.363281 36.507812 11.464844 36.820312 11.464844 C 37.238281 11.464844 37.550781 11.300781 37.832031 10.949219 L 37.96875 10.769531 L 38.210938 11.007812 C 38.519531 11.316406 38.84375 11.429688 39.40625 11.429688 C 40.253906 11.429688 40.945312 10.984375 41.503906 10.082031 L 41.695312 9.777344 L 41.828125 10.175781 C 42.128906 11.050781 42.542969 11.421875 43.167969 11.371094 C 43.507812 11.34375 43.84375 11.164062 44.164062 10.847656 L 44.398438 10.621094 L 44.425781 10.757812 C 44.539062 11.273438 44.953125 11.578125 45.511719 11.539062 C 45.75 11.527344 45.820312 11.503906 46.03125 11.351562 L 46.277344 11.183594 L 46.132812 11.726562 L 45.992188 12.273438 L 45.394531 12.867188 C 44.363281 13.902344 43.617188 15.027344 43.308594 16.015625 C 43.238281 16.257812 43.214844 16.429688 43.214844 16.738281 C 43.214844 17.113281 43.222656 17.15625 43.339844 17.34375 C 43.582031 17.738281 44.140625 17.886719 44.554688 17.671875 C 45.257812 17.300781 45.835938 15.953125 46.226562 13.78125 C 46.285156 13.445312 46.363281 13.046875 46.398438 12.894531 L 46.460938 12.617188 L 47.160156 12.125 C 47.542969 11.855469 48.011719 11.511719 48.203125 11.359375 C 48.613281 11.03125 49.167969 10.4375 49.207031 10.289062 C 49.25 10.121094 49.140625 9.972656 48.964844 9.957031 C 48.824219 9.941406 48.800781 9.964844 48.566406 10.25 C 48.261719 10.621094 47.769531 11.046875 47.140625 11.480469 L 46.671875 11.804688 L 46.753906 11.5 C 46.800781 11.328125 46.980469 10.730469 47.15625 10.171875 C 47.328125 9.609375 47.460938 9.121094 47.449219 9.085938 C 47.4375 9.054688 47.375 8.996094 47.316406 8.953125 C 47.125 8.824219 47.03125 8.914062 46.773438 9.449219 C 46.382812 10.28125 45.894531 10.910156 45.597656 10.984375 C 45.40625 11.03125 45.1875 10.972656 45.066406 10.832031 C 44.964844 10.722656 44.949219 10.667969 44.949219 10.460938 C 44.949219 9.96875 45.207031 9.304688 45.617188 8.75 C 45.734375 8.589844 45.828125 8.429688 45.828125 8.390625 C 45.828125 8.253906 45.703125 8.136719 45.558594 8.136719 C 45.367188 8.136719 45.175781 8.363281 44.757812 9.097656 C 44.195312 10.078125 43.742188 10.617188 43.339844 10.769531 C 42.8125 10.976562 42.417969 10.527344 42.210938 9.503906 C 42.105469 8.945312 42.09375 8.96875 42.472656 8.335938 C 43.480469 6.625 44.125 4.9375 44.285156 3.574219 C 44.347656 3.019531 44.3125 2.152344 44.21875 1.875 C 44.078125 1.476562 43.871094 1.285156 43.519531 1.238281 C 43.382812 1.222656 43.292969 1.238281 43.15625 1.3125 Z M 43.589844 1.871094 C 43.644531 1.925781 43.707031 2.042969 43.730469 2.132812 C 43.808594 2.402344 43.785156 3.308594 43.699219 3.84375 C 43.511719 4.9375 42.933594 6.453125 42.25 7.648438 L 42.058594 7.988281 L 42.078125 7.230469 C 42.152344 4.816406 42.773438 2.136719 43.324219 1.824219 C 43.457031 1.753906 43.476562 1.757812 43.589844 1.871094 Z M 39.085938 9.238281 C 39.320312 9.699219 39.355469 9.796875 39.355469 9.996094 C 39.355469 10.382812 39.152344 10.621094 38.835938 10.621094 C 38.65625 10.621094 38.203125 10.363281 38.238281 10.285156 C 38.285156 10.15625 38.5 9.539062 38.632812 9.117188 C 38.710938 8.882812 38.78125 8.695312 38.796875 8.703125 C 38.808594 8.710938 38.941406 8.953125 39.085938 9.238281 Z M 31.597656 10.273438 C 31.753906 10.453125 31.96875 10.835938 32.039062 11.078125 C 32.066406 11.175781 32.0625 11.175781 31.914062 11.109375 C 31.703125 11.023438 31.53125 10.890625 31.410156 10.730469 C 31.03125 10.226562 31.195312 9.8125 31.597656 10.273438 Z M 45.675781 13.769531 C 45.375 15.371094 44.980469 16.503906 44.550781 16.972656 C 44.363281 17.179688 44.199219 17.242188 44 17.1875 C 43.292969 17 44.105469 14.996094 45.484375 13.527344 C 45.632812 13.367188 45.757812 13.234375 45.765625 13.234375 C 45.769531 13.234375 45.726562 13.476562 45.675781 13.769531 Z M 22.671875 16.84375 C 23.089844 17.046875 23.296875 17.394531 23.1875 17.722656 C 23.125 17.910156 22.957031 18.023438 22.679688 18.0625 C 22.566406 18.078125 22.464844 18.109375 22.449219 18.128906 C 22.414062 18.191406 22.347656 18.171875 22.347656 18.09375 C 22.347656 18.058594 22.261719 17.808594 22.15625 17.539062 C 22.046875 17.269531 21.925781 16.957031 21.890625 16.839844 C 21.847656 16.726562 21.800781 16.59375 21.785156 16.554688 C 21.757812 16.492188 21.808594 16.5 22.105469 16.609375 C 22.296875 16.679688 22.550781 16.785156 22.671875 16.84375 Z M 17.058594 23.582031 C 17.230469 23.640625 17.421875 23.722656 17.480469 23.757812 L 17.585938 23.832031 L 17.425781 23.886719 C 16.898438 24.070312 16.0625 23.796875 16.332031 23.527344 C 16.410156 23.449219 16.722656 23.46875 17.058594 23.582031 Z M 17.058594 23.582031 "/>
<path style=" stroke:none;fill-rule:nonzero;fill:rgb(0%,0%,0%);fill-opacity:1;" d="M 25.699219 9.089844 C 25.117188 9.394531 25.332031 10.285156 25.992188 10.285156 C 26.242188 10.285156 26.433594 10.164062 26.535156 9.933594 C 26.636719 9.714844 26.636719 9.636719 26.539062 9.417969 C 26.386719 9.082031 26 8.9375 25.699219 9.089844 Z M 26.082031 9.492188 C 26.183594 9.578125 26.199219 9.675781 26.132812 9.773438 C 26.0625 9.871094 25.910156 9.890625 25.832031 9.8125 C 25.757812 9.738281 25.769531 9.539062 25.855469 9.488281 C 25.953125 9.429688 26.003906 9.433594 26.082031 9.492188 Z M 26.082031 9.492188 "/>
<path style=" stroke:none;fill-rule:nonzero;fill:rgb(0%,0%,0%);fill-opacity:1;" d="M 52.726562 10.203125 C 52.511719 10.253906 52.105469 10.460938 51.746094 10.710938 C 51.449219 10.910156 51.394531 10.976562 51.394531 11.128906 C 51.394531 11.207031 51.578125 11.378906 51.667969 11.378906 C 51.691406 11.378906 51.910156 11.253906 52.144531 11.101562 C 52.5625 10.832031 52.800781 10.714844 52.84375 10.761719 C 52.886719 10.804688 52.726562 11.058594 52.054688 12.042969 C 51.304688 13.15625 51.265625 13.238281 51.476562 13.449219 C 51.597656 13.570312 51.625 13.582031 51.832031 13.5625 C 52.023438 13.546875 52.140625 13.492188 52.617188 13.207031 C 53.304688 12.785156 54.160156 12.332031 54.398438 12.261719 C 54.625 12.195312 54.785156 12.257812 54.785156 12.410156 C 54.785156 12.472656 54.648438 12.722656 54.445312 13.011719 C 53.371094 14.589844 53.351562 14.632812 53.542969 14.863281 C 53.734375 15.085938 53.867188 15.042969 54.839844 14.460938 C 56.097656 13.707031 56.582031 13.503906 56.828125 13.621094 C 57.054688 13.730469 57 13.90625 56.542969 14.515625 C 55.847656 15.453125 55.753906 15.988281 56.195312 16.421875 C 56.445312 16.671875 56.707031 16.75 57.160156 16.722656 C 57.441406 16.703125 57.503906 16.710938 57.488281 16.753906 C 57.347656 17.128906 57.382812 17.492188 57.589844 17.78125 C 57.824219 18.101562 58.296875 18.277344 58.808594 18.222656 L 59.054688 18.195312 L 58.988281 18.382812 C 58.902344 18.617188 58.898438 19.03125 58.980469 19.21875 C 59.136719 19.589844 59.566406 19.847656 60.097656 19.882812 L 60.417969 19.90625 L 60.34375 20.121094 C 60.25 20.402344 60.25 20.476562 60.351562 20.753906 C 60.46875 21.0625 60.722656 21.296875 61.046875 21.394531 C 61.234375 21.449219 61.394531 21.457031 61.761719 21.445312 C 62.101562 21.429688 62.226562 21.4375 62.207031 21.472656 C 62.1875 21.496094 62.105469 21.628906 62.023438 21.761719 C 61.800781 22.109375 61.71875 22.371094 61.742188 22.699219 C 61.777344 23.308594 62.277344 23.703125 63.082031 23.757812 L 63.40625 23.785156 L 63.273438 23.933594 C 62.738281 24.546875 62.773438 25.480469 63.363281 26.109375 C 63.78125 26.546875 64.390625 26.757812 65.378906 26.792969 C 65.964844 26.820312 65.992188 26.816406 66.082031 26.726562 C 66.203125 26.605469 66.195312 26.453125 66.058594 26.347656 C 65.964844 26.273438 65.890625 26.257812 65.492188 26.257812 C 64.472656 26.257812 63.847656 25.992188 63.578125 25.453125 C 63.4375 25.167969 63.40625 24.824219 63.503906 24.605469 L 63.554688 24.496094 L 63.824219 24.660156 C 64.867188 25.300781 66.125 24.957031 66.128906 24.023438 C 66.128906 23.648438 65.808594 23.25 65.425781 23.140625 C 65.199219 23.078125 64.683594 23.089844 64.199219 23.164062 C 63.621094 23.257812 62.921875 23.234375 62.644531 23.105469 C 62.277344 22.941406 62.183594 22.597656 62.398438 22.179688 C 62.492188 22.003906 62.921875 21.4375 63.054688 21.324219 C 63.097656 21.285156 63.457031 21.175781 63.855469 21.082031 C 66.042969 20.546875 68.042969 19.636719 68.917969 18.773438 C 69.21875 18.472656 69.347656 18.230469 69.351562 17.949219 C 69.351562 17.773438 69.328125 17.71875 69.199219 17.582031 C 69.121094 17.488281 68.984375 17.390625 68.902344 17.363281 C 68.664062 17.285156 68.089844 17.335938 67.675781 17.476562 C 66.804688 17.761719 65.226562 18.695312 64.203125 19.527344 L 63.765625 19.882812 L 63.6875 19.71875 C 63.546875 19.429688 63.136719 19.175781 62.65625 19.070312 C 62.230469 18.980469 61.929688 18.996094 61.496094 19.132812 C 60.988281 19.296875 60.546875 19.363281 60.175781 19.339844 C 59.695312 19.308594 59.460938 19.128906 59.464844 18.796875 C 59.46875 18.554688 59.589844 18.304688 59.898438 17.921875 C 60.054688 17.726562 60.183594 17.535156 60.183594 17.496094 C 60.183594 17.457031 60.15625 17.382812 60.117188 17.332031 C 60.023438 17.195312 59.839844 17.214844 59.609375 17.375 C 58.871094 17.882812 57.964844 17.765625 57.964844 17.152344 C 57.964844 16.851562 58.398438 16.394531 58.84375 16.21875 C 59.191406 16.085938 59.679688 16.089844 59.953125 16.234375 C 60.300781 16.417969 60.519531 16.722656 60.519531 17.019531 C 60.519531 17.183594 60.6875 17.34375 60.828125 17.304688 C 61.019531 17.261719 61.074219 17.164062 61.050781 16.902344 C 61.007812 16.402344 60.707031 15.996094 60.210938 15.757812 C 59.960938 15.640625 59.4375 15.535156 59.328125 15.578125 C 59.296875 15.589844 59.230469 15.5625 59.183594 15.515625 C 59.0625 15.394531 58.910156 15.40625 58.707031 15.550781 C 58.453125 15.726562 57.8125 16.039062 57.550781 16.117188 C 57.234375 16.210938 56.847656 16.207031 56.679688 16.101562 C 56.324219 15.886719 56.40625 15.605469 57.066406 14.710938 C 57.398438 14.261719 57.5 14.035156 57.503906 13.769531 C 57.503906 13.328125 57.164062 13.023438 56.65625 13.023438 C 56.304688 13.023438 55.503906 13.390625 54.589844 13.976562 C 54.46875 14.058594 54.367188 14.113281 54.367188 14.101562 C 54.367188 14.089844 54.535156 13.84375 54.738281 13.542969 C 55.195312 12.882812 55.289062 12.695312 55.3125 12.417969 C 55.34375 12.140625 55.242188 11.945312 55.015625 11.808594 C 54.875 11.730469 54.796875 11.71875 54.535156 11.726562 C 54.257812 11.738281 54.171875 11.765625 53.824219 11.933594 C 53.472656 12.101562 52.816406 12.464844 52.296875 12.777344 L 52.132812 12.875 L 52.328125 12.601562 C 52.75 12.015625 53.238281 11.261719 53.34375 11.03125 C 53.519531 10.636719 53.445312 10.351562 53.125 10.21875 C 52.972656 10.148438 52.949219 10.148438 52.726562 10.203125 Z M 68.777344 17.910156 C 68.847656 17.980469 68.765625 18.167969 68.578125 18.351562 C 68.058594 18.878906 66.710938 19.609375 65.460938 20.039062 C 64.828125 20.257812 63.992188 20.496094 63.96875 20.472656 C 63.921875 20.425781 65.039062 19.554688 65.6875 19.125 C 67.0625 18.222656 68.515625 17.648438 68.777344 17.910156 Z M 62.753906 19.675781 C 62.863281 19.726562 63.042969 19.839844 63.148438 19.933594 C 63.257812 20.019531 63.382812 20.101562 63.421875 20.109375 C 63.492188 20.121094 63.433594 20.195312 63.152344 20.445312 L 62.796875 20.761719 L 62.367188 20.839844 C 61.8125 20.941406 61.292969 20.941406 61.113281 20.847656 C 60.960938 20.769531 60.855469 20.585938 60.855469 20.417969 C 60.855469 20.152344 61.222656 19.832031 61.722656 19.65625 C 62.066406 19.53125 62.449219 19.539062 62.753906 19.675781 Z M 65.4375 23.777344 C 65.785156 24.085938 65.492188 24.445312 64.898438 24.445312 C 64.59375 24.445312 64.316406 24.367188 64.0625 24.207031 C 63.882812 24.09375 63.890625 24.050781 64.144531 23.894531 C 64.390625 23.742188 64.710938 23.648438 65.003906 23.644531 C 65.261719 23.644531 65.296875 23.660156 65.4375 23.777344 Z M 65.4375 23.777344 "/>
<path style=" stroke:none;fill-rule:nonzero;fill:rgb(0%,0%,0%);fill-opacity:1;" d="M 76.570312 13.242188 C 74.976562 14.082031 73.703125 15.273438 73.136719 16.460938 C 72.738281 17.289062 72.613281 17.855469 72.585938 18.992188 C 72.554688 20.128906 72.671875 21.128906 73.007812 22.527344 C 73.085938 22.855469 73.144531 23.125 73.136719 23.132812 C 73.132812 23.140625 72.933594 23.035156 72.695312 22.902344 C 71.566406 22.277344 69.078125 21.117188 68.855469 21.117188 C 68.703125 21.117188 68.488281 21.257812 68.410156 21.40625 C 68.324219 21.578125 68.328125 21.742188 68.425781 21.902344 C 68.507812 22.039062 68.535156 22.050781 69.476562 22.46875 C 72.574219 23.839844 75.917969 25.9375 78.636719 28.222656 C 78.875 28.421875 79.140625 28.617188 79.21875 28.648438 C 79.546875 28.785156 79.851562 28.578125 79.886719 28.199219 C 79.910156 27.984375 79.90625 27.984375 79.683594 27.765625 C 79.21875 27.3125 77.601562 26.050781 76.429688 25.230469 C 76.105469 25 75.839844 24.804688 75.851562 24.800781 C 75.855469 24.792969 76.148438 24.824219 76.496094 24.867188 C 78.726562 25.160156 80.375 25.011719 81.601562 24.421875 C 83.355469 23.578125 84.414062 21.703125 84.921875 18.546875 C 84.980469 18.179688 85.039062 17.9375 85.089844 17.863281 C 85.195312 17.714844 85.191406 17.492188 85.085938 17.375 C 84.90625 17.179688 84.097656 17.089844 82.492188 17.089844 C 81.445312 17.097656 81.230469 17.105469 80.777344 17.1875 C 80.003906 17.328125 79.402344 17.515625 78.820312 17.808594 C 78.535156 17.949219 78.304688 18.039062 78.304688 18.015625 C 78.304688 17.988281 78.328125 17.765625 78.351562 17.511719 C 78.460938 16.417969 78.210938 15.296875 77.5625 13.980469 C 77.285156 13.421875 77.179688 13.25 77.082031 13.1875 C 76.90625 13.082031 76.863281 13.085938 76.570312 13.242188 Z M 76.957031 14.527344 C 77.40625 15.480469 77.570312 16.167969 77.570312 17.070312 C 77.570312 17.707031 77.535156 17.949219 77.355469 18.523438 C 77.265625 18.820312 77.214844 18.898438 76.984375 19.148438 C 76.382812 19.789062 75.910156 20.464844 75.339844 21.496094 C 75.023438 22.070312 74.972656 22.140625 74.496094 22.613281 L 73.996094 23.117188 L 74.054688 22.910156 C 75.285156 18.773438 76.699219 14.078125 76.71875 14.078125 C 76.734375 14.078125 76.839844 14.28125 76.957031 14.527344 Z M 84.054688 17.9375 C 84.136719 17.957031 84.207031 17.984375 84.207031 18.015625 C 84.207031 18.039062 83.441406 18.554688 82.5 19.152344 C 78.53125 21.699219 75.210938 23.820312 75.152344 23.839844 C 75.039062 23.882812 75.679688 22.511719 76.203125 21.597656 C 77.535156 19.25 79.035156 18.179688 81.339844 17.914062 C 81.683594 17.875 83.769531 17.898438 84.054688 17.9375 Z M 84.054688 17.9375 "/>
<path style=" stroke:none;fill-rule:nonzero;fill:rgb(0%,0%,0%);fill-opacity:1;" d="M 43.335938 28.511719 C 43.066406 28.59375 42.871094 28.769531 42.746094 29.03125 L 42.628906 29.273438 L 42.628906 42.464844 L 42.722656 42.902344 C 42.914062 43.773438 43.253906 44.449219 43.753906 44.953125 C 44.109375 45.304688 44.433594 45.515625 44.886719 45.671875 C 45.183594 45.777344 45.285156 45.792969 45.765625 45.792969 C 46.300781 45.796875 46.320312 45.792969 46.589844 45.65625 C 46.753906 45.578125 46.925781 45.449219 47 45.363281 C 47.363281 44.917969 47.300781 44.148438 46.867188 43.773438 C 46.664062 43.597656 46.421875 43.539062 45.933594 43.539062 C 45.742188 43.539062 45.535156 43.523438 45.480469 43.503906 C 45.230469 43.40625 44.964844 43.003906 44.835938 42.519531 C 44.769531 42.277344 44.761719 41.683594 44.742188 35.699219 C 44.71875 29.378906 44.714844 29.136719 44.640625 29.019531 C 44.511719 28.8125 44.351562 28.65625 44.175781 28.570312 C 43.96875 28.460938 43.566406 28.433594 43.335938 28.511719 Z M 43.335938 28.511719 "/>
<path style=" stroke:none;fill-rule:nonzero;fill:rgb(0%,0%,0%);fill-opacity:1;" d="M 37.972656 28.832031 C 37.5625 28.914062 37.167969 29.226562 36.976562 29.617188 C 36.867188 29.835938 36.855469 29.910156 36.851562 30.261719 C 36.851562 30.632812 36.863281 30.6875 36.988281 30.945312 C 37.414062 31.816406 38.460938 32.019531 39.171875 31.378906 C 39.261719 31.292969 39.398438 31.097656 39.476562 30.945312 C 39.601562 30.695312 39.613281 30.628906 39.613281 30.285156 C 39.613281 29.964844 39.597656 29.871094 39.503906 29.667969 C 39.351562 29.339844 39.128906 29.105469 38.824219 28.960938 C 38.539062 28.820312 38.238281 28.777344 37.972656 28.832031 Z M 37.972656 28.832031 "/>
<path style=" stroke:none;fill-rule:nonzero;fill:rgb(0%,0%,0%);fill-opacity:1;" d="M 29.945312 29.796875 C 29.738281 29.851562 29.570312 29.957031 29.421875 30.121094 C 29.144531 30.4375 29.152344 30.40625 29.136719 32.296875 L 29.125 34.015625 L 28.554688 34.015625 C 27.902344 34.015625 27.730469 34.050781 27.492188 34.261719 C 27.265625 34.457031 27.164062 34.683594 27.164062 35.003906 C 27.164062 35.421875 27.367188 35.75 27.726562 35.914062 C 27.867188 35.980469 28.003906 35.996094 28.511719 35.996094 L 29.125 35.996094 L 29.140625 39.082031 C 29.15625 41.753906 29.167969 42.210938 29.226562 42.488281 C 29.429688 43.417969 29.808594 44.144531 30.390625 44.730469 C 31.148438 45.488281 32.09375 45.851562 33.234375 45.808594 C 33.65625 45.796875 33.75 45.777344 33.957031 45.671875 C 34.386719 45.460938 34.605469 45.066406 34.558594 44.570312 C 34.515625 44.144531 34.324219 43.824219 34.003906 43.65625 C 33.867188 43.582031 33.730469 43.566406 33.183594 43.539062 C 32.589844 43.519531 32.515625 43.507812 32.300781 43.402344 C 32.03125 43.265625 31.6875 42.917969 31.535156 42.613281 C 31.28125 42.109375 31.285156 42.148438 31.285156 38.945312 L 31.285156 36.015625 L 32.375 35.996094 C 33.402344 35.976562 33.46875 35.96875 33.640625 35.878906 C 34.25 35.554688 34.296875 34.605469 33.730469 34.203125 C 33.644531 34.144531 33.515625 34.078125 33.4375 34.058594 C 33.355469 34.03125 32.835938 34.015625 32.28125 34.015625 L 31.265625 34.015625 L 31.265625 32.332031 C 31.265625 30.519531 31.253906 30.457031 31.035156 30.164062 C 30.820312 29.878906 30.292969 29.703125 29.945312 29.796875 Z M 29.945312 29.796875 "/>
<path style=" stroke:none;fill-rule:nonzero;fill:rgb(0%,0%,0%);fill-opacity:1;" d="M 64.316406 29.824219 C 64.050781 29.910156 63.78125 30.179688 63.6875 30.453125 C 63.625 30.628906 63.617188 30.882812 63.617188 32.335938 L 63.617188 34.015625 L 63.023438 34.015625 C 62.378906 34.019531 62.210938 34.050781 61.96875 34.242188 C 61.523438 34.582031 61.511719 35.394531 61.945312 35.765625 C 62.167969 35.949219 62.265625 35.96875 62.945312 35.996094 L 63.59375 36.015625 L 63.621094 39.15625 C 63.640625 41.960938 63.648438 42.332031 63.714844 42.609375 C 63.921875 43.480469 64.320312 44.210938 64.898438 44.765625 C 65.257812 45.109375 65.496094 45.277344 65.929688 45.480469 C 66.484375 45.738281 66.761719 45.792969 67.53125 45.792969 C 68.28125 45.796875 68.378906 45.769531 68.6875 45.488281 C 68.929688 45.269531 69.015625 45.0625 69.015625 44.679688 C 69.015625 44.308594 68.902344 44.023438 68.675781 43.804688 C 68.460938 43.605469 68.335938 43.570312 67.632812 43.539062 C 67.035156 43.515625 66.96875 43.507812 66.757812 43.398438 C 66.308594 43.160156 65.984375 42.71875 65.835938 42.125 C 65.753906 41.816406 65.75 41.652344 65.75 38.894531 L 65.75 35.996094 L 66.808594 35.996094 C 68.007812 35.996094 68.074219 35.980469 68.355469 35.667969 C 68.773438 35.199219 68.636719 34.429688 68.082031 34.128906 C 67.914062 34.039062 67.847656 34.035156 66.832031 34.023438 L 65.75 34.011719 L 65.75 32.375 C 65.75 30.46875 65.742188 30.417969 65.414062 30.09375 C 65.109375 29.78125 64.742188 29.695312 64.316406 29.824219 Z M 64.316406 29.824219 "/>
<path style=" stroke:none;fill-rule:nonzero;fill:rgb(0%,0%,0%);fill-opacity:1;" d="M 23.871094 33.472656 C 22.898438 33.546875 21.925781 33.988281 21.210938 34.679688 L 20.925781 34.953125 L 20.925781 34.722656 C 20.925781 34.199219 20.65625 33.746094 20.277344 33.640625 C 20.070312 33.582031 19.660156 33.582031 19.457031 33.636719 C 19.238281 33.699219 18.984375 33.9375 18.878906 34.179688 L 18.792969 34.390625 L 18.800781 39.753906 L 18.8125 45.121094 L 18.910156 45.300781 C 19.109375 45.683594 19.570312 45.871094 20.078125 45.789062 C 20.421875 45.726562 20.628906 45.585938 20.785156 45.296875 L 20.90625 45.078125 L 20.925781 41.371094 C 20.949219 38.457031 20.964844 37.621094 21.007812 37.492188 C 21.195312 36.917969 21.601562 36.386719 22.078125 36.085938 C 22.863281 35.582031 23.773438 35.433594 25.089844 35.59375 C 25.675781 35.667969 25.734375 35.667969 25.953125 35.605469 C 26.242188 35.515625 26.417969 35.335938 26.515625 35.019531 C 26.65625 34.523438 26.53125 34.175781 26.085938 33.859375 C 25.65625 33.550781 24.789062 33.398438 23.871094 33.472656 Z M 23.871094 33.472656 "/>
<path style=" stroke:none;fill-rule:nonzero;fill:rgb(0%,0%,0%);fill-opacity:1;" d="M 9.019531 33.578125 C 6.5 34.027344 4.570312 36.183594 4.273438 38.875 C 4.027344 41.109375 4.75 43.183594 6.253906 44.546875 C 6.96875 45.195312 7.757812 45.601562 8.707031 45.804688 C 9.199219 45.910156 10.304688 45.90625 10.789062 45.800781 C 11.808594 45.582031 12.601562 45.160156 13.347656 44.441406 L 13.714844 44.089844 L 13.734375 44.566406 C 13.753906 44.992188 13.765625 45.0625 13.875 45.265625 C 14.074219 45.632812 14.386719 45.816406 14.800781 45.816406 C 14.929688 45.816406 15.109375 45.796875 15.199219 45.765625 C 15.429688 45.699219 15.707031 45.4375 15.8125 45.191406 C 15.898438 44.984375 15.898438 44.941406 15.902344 42.0625 C 15.910156 38.898438 15.894531 38.730469 15.675781 37.914062 C 15.53125 37.398438 15.433594 37.144531 15.164062 36.625 C 14.335938 35.007812 12.808594 33.867188 11.09375 33.578125 C 10.597656 33.492188 9.488281 33.492188 9.019531 33.578125 Z M 10.835938 35.625 C 12.132812 35.863281 13.324219 37.089844 13.664062 38.527344 C 13.90625 39.574219 13.800781 40.761719 13.371094 41.671875 C 12.546875 43.445312 10.664062 44.257812 8.84375 43.628906 C 7.195312 43.058594 6.144531 41.191406 6.351562 39.210938 C 6.464844 38.128906 6.839844 37.292969 7.515625 36.609375 C 8.382812 35.742188 9.570312 35.390625 10.835938 35.625 Z M 10.835938 35.625 "/>
<path style=" stroke:none;fill-rule:nonzero;fill:rgb(0%,0%,0%);fill-opacity:1;" d="M 53.441406 33.554688 C 51.617188 33.824219 50.03125 35.023438 49.164062 36.777344 C 48.300781 38.523438 48.289062 40.832031 49.136719 42.644531 C 49.675781 43.804688 50.679688 44.855469 51.75 45.375 C 52.53125 45.753906 53.101562 45.878906 54.054688 45.875 C 54.535156 45.875 54.824219 45.855469 55.078125 45.800781 C 56.085938 45.589844 56.890625 45.15625 57.65625 44.417969 L 57.996094 44.089844 L 58.015625 44.539062 C 58.046875 45.203125 58.226562 45.542969 58.65625 45.738281 C 58.882812 45.84375 59.351562 45.84375 59.578125 45.738281 C 59.789062 45.640625 60.070312 45.324219 60.132812 45.113281 C 60.195312 44.898438 60.210938 39.265625 60.140625 38.828125 C 60.070312 38.308594 59.976562 37.90625 59.84375 37.523438 C 59.121094 35.429688 57.410156 33.917969 55.375 33.578125 C 54.949219 33.503906 53.859375 33.492188 53.441406 33.554688 Z M 55.289062 35.664062 C 56.105469 35.875 56.851562 36.421875 57.355469 37.175781 C 58.1875 38.429688 58.316406 40.230469 57.671875 41.632812 C 56.984375 43.125 55.703125 43.910156 54.121094 43.824219 C 52.75 43.742188 51.632812 42.953125 51.015625 41.628906 C 50.484375 40.476562 50.484375 38.890625 51.023438 37.726562 C 51.558594 36.566406 52.675781 35.726562 53.894531 35.574219 C 54.28125 35.527344 54.90625 35.566406 55.289062 35.664062 Z M 55.289062 35.664062 "/>
<path style=" stroke:none;fill-rule:nonzero;fill:rgb(0%,0%,0%);fill-opacity:1;" d="M 75.484375 33.554688 C 74.359375 33.71875 73.1875 34.339844 72.410156 35.179688 C 71.507812 36.148438 70.964844 37.417969 70.820312 38.898438 C 70.46875 42.359375 72.359375 45.164062 75.46875 45.78125 C 76.097656 45.90625 77.179688 45.917969 77.734375 45.804688 C 79.042969 45.539062 80.515625 44.765625 80.796875 44.199219 C 80.964844 43.855469 80.925781 43.5625 80.660156 43.183594 C 80.464844 42.910156 80.148438 42.761719 79.8125 42.792969 C 79.546875 42.820312 79.382812 42.890625 79.078125 43.125 C 78.78125 43.355469 78.125 43.65625 77.648438 43.78125 C 77.304688 43.875 77.152344 43.890625 76.695312 43.886719 C 76.359375 43.886719 76.035156 43.859375 75.851562 43.820312 C 74.644531 43.554688 73.691406 42.777344 73.160156 41.628906 C 73.019531 41.335938 72.824219 40.699219 72.824219 40.550781 C 72.824219 40.519531 74 40.503906 76.894531 40.503906 C 80.773438 40.503906 80.972656 40.5 81.132812 40.425781 C 81.335938 40.328125 81.546875 40.113281 81.628906 39.90625 C 81.710938 39.722656 81.71875 39.117188 81.65625 38.546875 C 81.34375 35.84375 79.738281 33.953125 77.425781 33.570312 C 76.996094 33.503906 75.910156 33.492188 75.484375 33.554688 Z M 77.40625 35.617188 C 78.253906 35.886719 78.855469 36.425781 79.273438 37.28125 C 79.449219 37.644531 79.6875 38.398438 79.6875 38.59375 C 79.6875 38.644531 79.140625 38.652344 76.277344 38.652344 C 72.925781 38.652344 72.867188 38.652344 72.867188 38.570312 C 72.867188 38.449219 73.066406 37.828125 73.199219 37.53125 C 73.648438 36.53125 74.535156 35.796875 75.574219 35.570312 C 76.085938 35.460938 76.980469 35.480469 77.40625 35.617188 Z M 77.40625 35.617188 "/>
<path style=" stroke:none;fill-rule:nonzero;fill:rgb(0%,0%,0%);fill-opacity:1;" d="M 37.71875 33.703125 C 37.480469 33.820312 37.289062 34.039062 37.199219 34.300781 C 37.15625 34.429688 37.144531 35.503906 37.144531 39.703125 L 37.144531 44.953125 L 37.269531 45.207031 C 37.425781 45.515625 37.660156 45.707031 37.984375 45.777344 C 38.609375 45.917969 39.179688 45.535156 39.300781 44.894531 C 39.355469 44.589844 39.359375 34.847656 39.300781 34.5 C 39.246094 34.171875 39.078125 33.902344 38.824219 33.742188 C 38.648438 33.632812 38.566406 33.613281 38.277344 33.601562 C 37.976562 33.589844 37.914062 33.601562 37.71875 33.703125 Z M 37.71875 33.703125 "/>
</g>
</svg>
